<svg id="Layer_1" data-name="Layer 1" xmlns="http://www.w3.org/2000/svg" viewBox="0 0 924.49 191.86"><defs><style>.cls-1{fill:#0082ff;}</style></defs><title>Savvi_txt_blu</title><path class="cls-1" d="M1872,817.49h18.12c3.2,25.23,18.83,42.64,53.3,42.64,31.27,0,47.25-14.21,47.25-36.6,0-23.81-13.86-31.27-48.67-37.66-45.48-8.17-64-19.9-64-51.87,0-31.62,29.84-49.74,61.11-49.74,33.4,0,59.69,13.86,64.66,50.45H1985.7c-4.62-23.81-19.9-34.47-46.9-34.47-25.94,0-43.34,13.15-43.34,33,0,21.32,12.79,29.13,50.81,35.88,39.79,7.11,62.53,16.7,62.53,52.94,0,31.27-23.09,54-65.37,54C1899.72,876.11,1874.49,853,1872,817.49Z" transform="translate(-1872.01 -684.25)"/><path class="cls-1" d="M2053.54,822.82c0-43,41.21-56.14,87-56.14h38.73V750c0-34.82-14.21-49.74-46.9-49.74-28.07,0-48,12.08-52.23,39.44h-18.48c4.26-39.08,36.24-55.43,71.41-55.43,38.73,0,65,18.48,65,65.73V872.91h-18.83V844.49c-11.72,18.12-31.62,31.27-62.89,31.27C2079.83,875.76,2053.54,858,2053.54,822.82Zm125.77-9.95V781.25h-38c-38.73,0-68.93,8.17-68.93,41.57,0,23.81,14.92,37.66,45.48,37.66C2152,860.48,2179.31,840.58,2179.31,812.87Z" transform="translate(-1872.01 -684.25)"/><path class="cls-1" d="M2243.6,687.1h20.61l63.24,167,62.89-167h19.18l-70,185.82H2315Z" transform="translate(-1872.01 -684.25)"/><path class="cls-1" d="M2443.61,687.1h20.61l63.24,167,62.89-167h19.19l-70,185.82H2515Z" transform="translate(-1872.01 -684.25)"/><path class="cls-1" d="M2769.85,779.83a13.43,13.43,0,0,1,13.5-13.15,13.33,13.33,0,0,1,0,26.65A13.5,13.5,0,0,1,2769.85,779.83Zm-107-92.73h18.83V872.91H2662.8V687.1Z" transform="translate(-1872.01 -684.25)"/></svg>