<svg id="Layer_1" data-name="Layer 1" xmlns="http://www.w3.org/2000/svg" viewBox="0 0 924.49 191.86"><defs><style>.cls-1{fill:#ffd3f4;}</style></defs><title>Savvi_txt_pnk</title><path class="cls-1" d="M1872,1284.34h18.12c3.2,25.23,18.83,42.64,53.3,42.64,31.27,0,47.25-14.21,47.25-36.6,0-23.81-13.86-31.27-48.67-37.66-45.48-8.17-64-19.9-64-51.87,0-31.62,29.84-49.74,61.11-49.74,33.4,0,59.69,13.86,64.66,50.45H1985.7c-4.62-23.81-19.9-34.47-46.9-34.47-25.94,0-43.34,13.15-43.34,33,0,21.32,12.79,29.13,50.81,35.88,39.79,7.11,62.53,16.7,62.53,52.94,0,31.27-23.09,54-65.37,54C1899.72,1343,1874.49,1319.87,1872,1284.34Z" transform="translate(-1872.01 -1151.1)"/><path class="cls-1" d="M2053.54,1289.67c0-43,41.21-56.14,87-56.14h38.73v-16.7c0-34.82-14.21-49.74-46.9-49.74-28.07,0-48,12.08-52.23,39.44h-18.48c4.26-39.08,36.24-55.43,71.41-55.43,38.73,0,65,18.48,65,65.73v122.93h-18.83v-28.42c-11.72,18.12-31.62,31.27-62.89,31.27C2079.83,1342.61,2053.54,1324.84,2053.54,1289.67Zm125.77-9.95V1248.1h-38c-38.73,0-68.93,8.17-68.93,41.57,0,23.81,14.92,37.66,45.48,37.66C2152,1327.33,2179.31,1307.43,2179.31,1279.72Z" transform="translate(-1872.01 -1151.1)"/><path class="cls-1" d="M2243.6,1153.94h20.61l63.24,167,62.89-167h19.18l-70,185.82H2315Z" transform="translate(-1872.01 -1151.1)"/><path class="cls-1" d="M2443.61,1153.94h20.61l63.24,167,62.89-167h19.19l-70,185.82H2515Z" transform="translate(-1872.01 -1151.1)"/><path class="cls-1" d="M2769.85,1246.68a13.43,13.43,0,0,1,13.5-13.15,13.33,13.33,0,0,1,0,26.65A13.5,13.5,0,0,1,2769.85,1246.68Zm-107-92.73h18.83v185.82H2662.8V1153.94Z" transform="translate(-1872.01 -1151.1)"/></svg>