<svg xmlns="http://www.w3.org/2000/svg" xmlns:xlink="http://www.w3.org/1999/xlink" version="1.1" x="0px" y="0px" viewBox="0 0 90 112.5" enable-background="new 0 0 90 90" xml:space="preserve"><g><rect x="20.2" y="31.6" fill="none" width="23.2" height="21.5"/><path d="M82.9,27.6h-7.7c0.1-0.9,0.2-1.8,0.2-2.7c0-11.2-7.3-12-10.8-12.1v0c0,0,0,0-0.1,0c0,0,0,0-0.1,0v0   c-3.4,0-10.8,0.8-10.8,12.1c0,0.9,0.1,1.8,0.2,2.7h-6.5V6.9c0-1.1-0.9-2-2-2s-2,0.9-2,2v20.7H20.2V6.4c0-1.1-0.9-2-2-2s-2,0.9-2,2   v21.2H7.1c-1.1,0-2,0.9-2,2s0.9,2,2,2h9.1v21.5H7.1c-1.1,0-2,0.9-2,2s0.9,2,2,2h9.1v25c0,1.1,0.9,2,2,2s2-0.9,2-2v-25h23.2v25   c0,1.1,0.9,2,2,2s2-0.9,2-2V57.3c14.8,0.7,23,9.5,23,24.9c0,1.1,0.9,2,2,2s2-0.9,2-2c0-17.8-9.8-28.2-27-29V31.6h7.4   c2.6,8,8.6,14.8,9.6,15.8l0.1,0.1l0.1-0.1c1-1,7.1-7.8,9.6-15.8h8.6c1.1,0,2-0.9,2-2S84,27.6,82.9,27.6z M43.4,53.1H20.2V31.6h23.2   V53.1z M72.7,27.6c-0.2,1.4-0.6,2.8-1.1,4.1c-1.8,5-5,9.5-7,12c-2-2.5-5.2-7-7-12c-0.5-1.3-0.8-2.7-1.1-4.1   c-0.1-0.9-0.2-1.8-0.2-2.7c0-8.3,4.4-9.5,8.2-9.5l0,0h0l0,0c3.8,0,8.2,1.2,8.2,9.5C72.9,25.8,72.8,26.7,72.7,27.6z"/><path d="M64.5,17.3c-3,0-5.4,2.4-5.4,5.4c0,2.1,1.3,4,3.1,4.9c0.7,0.3,1.5,0.5,2.3,0.5c0.8,0,1.6-0.2,2.3-0.5   c1.8-0.9,3.1-2.7,3.1-4.9C69.9,19.7,67.5,17.3,64.5,17.3z M64.5,25.5c-1.6,0-2.8-1.3-2.8-2.8c0-1.6,1.3-2.8,2.8-2.8   c1.6,0,2.8,1.3,2.8,2.8C67.4,24.3,66.1,25.5,64.5,25.5z"/></g><text x="0" y="105" fill="#000000" font-size="5px" font-weight="bold" font-family="'Helvetica Neue', Helvetica, Arial-Unicode, Arial, Sans-serif">Created by frederick allen</text><text x="0" y="110" fill="#000000" font-size="5px" font-weight="bold" font-family="'Helvetica Neue', Helvetica, Arial-Unicode, Arial, Sans-serif">from the Noun Project</text></svg>