<svg id="Layer_1" data-name="Layer 1" xmlns="http://www.w3.org/2000/svg" viewBox="0 0 1276.81 193.48"><defs><style>.cls-1{fill:#ffd3f4;}</style></defs><title>Savvi_txtlogo_pnk</title><path class="cls-1" d="M1872,1284.34h18.12c3.2,25.23,18.83,42.64,53.3,42.64,31.27,0,47.25-14.21,47.25-36.6,0-23.81-13.86-31.27-48.67-37.66-45.48-8.17-64-19.9-64-51.87,0-31.62,29.84-49.74,61.11-49.74,33.4,0,59.69,13.86,64.66,50.45H1985.7c-4.62-23.81-19.9-34.47-46.9-34.47-25.94,0-43.34,13.15-43.34,33,0,21.32,12.79,29.13,50.81,35.88,39.79,7.11,62.53,16.7,62.53,52.94,0,31.27-23.09,54-65.37,54C1899.72,1343,1874.49,1319.87,1872,1284.34Z" transform="translate(-1872.01 -1151.1)"/><path class="cls-1" d="M2053.54,1289.67c0-43,41.21-56.14,87-56.14h38.73v-16.7c0-34.82-14.21-49.74-46.9-49.74-28.07,0-48,12.08-52.23,39.44h-18.48c4.26-39.08,36.24-55.43,71.41-55.43,38.73,0,65,18.48,65,65.73v122.93h-18.83v-28.42c-11.72,18.12-31.62,31.27-62.89,31.27C2079.83,1342.61,2053.54,1324.84,2053.54,1289.67Zm125.77-9.95V1248.1h-38c-38.73,0-68.93,8.17-68.93,41.57,0,23.81,14.92,37.66,45.48,37.66C2152,1327.33,2179.31,1307.43,2179.31,1279.72Z" transform="translate(-1872.01 -1151.1)"/><path class="cls-1" d="M2243.6,1153.94h20.61l63.24,167,62.89-167h19.18l-70,185.82H2315Z" transform="translate(-1872.01 -1151.1)"/><path class="cls-1" d="M2443.61,1153.94h20.61l63.24,167,62.89-167h19.19l-70,185.82H2515Z" transform="translate(-1872.01 -1151.1)"/><path class="cls-1" d="M2769.85,1246.68a13.43,13.43,0,0,1,13.5-13.15,13.33,13.33,0,0,1,0,26.65A13.5,13.5,0,0,1,2769.85,1246.68Zm-107-92.73h18.83v185.82H2662.8V1153.94Z" transform="translate(-1872.01 -1151.1)"/><path class="cls-1" d="M2998.94,1318.82c-4.87,3.75-9.34,8.07-14.62,11.08-16.61,9.48-34.46,15.65-54.11,14.34-18.16-1.21-32.15-9.14-39-26a32.91,32.91,0,0,1,1.23-28.43c3.4-6.61,9.47-9.48,15.45-7.2a25.64,25.64,0,0,1,6,3.78c-6.54-.53-10.21,2.27-10.87,8.58a18.13,18.13,0,0,0,3.88,13.42c3.48,4.47,8.34,5.83,13.92,5.23,8.91-1,16.55-5,24.14-9.15,9.41-5.13,18.68-10.52,28.27-15.33,5.61-2.81,11.88-5,18.28-3.81a43.34,43.34,0,0,0,14.43,0c8.32-1.16,15.88,2.33,23,6,7.84,4,15.34,8.68,23,13,7.24,4,14.57,8,23,9.11,12.45,1.68,21.58-7.84,19-19.68-1.19-5.56-4.65-7.91-10.43-7.09,4.55-6.44,14.21-6.38,19.25.24,5.54,7.28,6.62,15.64,5.12,24.19-2.84,16.21-13.36,26.21-29.31,31.16-11.25,3.49-22.67,2.71-34,.07-13.59-3.17-26.44-8-37.58-16.32C3004.12,1323.74,3001.46,1321,2998.94,1318.82Z" transform="translate(-1872.01 -1151.1)"/><path class="cls-1" d="M3148.73,1161.38c0-2.61-1-4.09-4.09-4.33-15.68-1.21-31.32-2.91-47-3.87-22.94-1.41-45.62.38-67.81,6.55-6.16,1.71-12.23,3.94-18.52,5-13.21,2.15-26.16.84-39-3.16a181.16,181.16,0,0,0-30.14-6.81,233.35,233.35,0,0,0-34.69-1.9c-14.18.28-28.34,1.77-42.5,2.88-5.31.42-10.59,1.22-15.87,1.85-0.28,6-.6,11.28-0.7,16.62a3.08,3.08,0,0,0,1.59,2.28c6.34,2.81,8.53,8.09,9.35,14.15,1.69,12.45,3.61,24.92,8.54,36.6,5.06,12,13.52,20.57,27.74,22.74a164.08,164.08,0,0,0,39.88,1.6c18-1.67,31.2-11.06,40.71-25.55,5.22-8,8.54-16.67,11.57-25.54a27.12,27.12,0,0,1,4.34-8.33,8.31,8.31,0,0,1,13,0,31.68,31.68,0,0,1,4.79,9.49c3.8,11.47,8.58,22.42,16.74,31.74,10.51,12,24,18.27,40.36,18.54,12.91,0.21,25.87.19,38.48-2.85a33.09,33.09,0,0,0,11-5.18c10.52-7.44,14.69-18.47,17.2-30.15,1.8-8.38,3-16.88,4.64-25.29a16.32,16.32,0,0,1,8.5-11.76,3.91,3.91,0,0,0,1.86-2.7C3148.9,1169.79,3148.76,1165.58,3148.73,1161.38Zm-293,8.56c-0.08.73-1,1.38-1.52,2.06a6.46,6.46,0,0,1-1.65-1.93,11.35,11.35,0,0,1-.07-3.13h0a9.11,9.11,0,0,1,.06-2.81,8.84,8.84,0,0,1,1.67-2.22c0.53,0.68,1.44,1.33,1.52,2.06A28,28,0,0,1,2855.71,1169.94Zm289,0.14A6.46,6.46,0,0,1,3143,1172c-0.53-.68-1.44-1.33-1.52-2.06a28,28,0,0,1,0-6c0.08-.73,1-1.38,1.52-2.06a8.84,8.84,0,0,1,1.67,2.22,9.11,9.11,0,0,1,.06,2.81h0A11.35,11.35,0,0,1,3144.66,1170.07Z" transform="translate(-1872.01 -1151.1)"/></svg>