<svg id="Layer_1" data-name="Layer 1" xmlns="http://www.w3.org/2000/svg" viewBox="0 0 453.51 453.51"><defs><style>.cls-1{fill:#0082ff;}.cls-2{fill:#00f0ff;}</style></defs><title>Mustache_man_Blu-Ltblu</title><rect class="cls-1" width="453.51" height="453.51"/><path class="cls-2" d="M2027.22,341.82c-4.86,3.74-9.32,8.06-14.6,11.07-16.58,9.46-34.4,15.62-54,14.32-18.13-1.21-32.1-9.13-38.94-26a32.86,32.86,0,0,1,1.23-28.38c3.4-6.6,9.45-9.46,15.43-7.18a25.6,25.6,0,0,1,6,3.77c-6.53-.53-10.19,2.26-10.86,8.57a18.1,18.1,0,0,0,3.88,13.4c3.48,4.46,8.32,5.82,13.9,5.22,8.89-1,16.52-5,24.1-9.14,9.4-5.12,18.65-10.51,28.22-15.31,5.6-2.81,11.85-5,18.25-3.8a43.26,43.26,0,0,0,14.4,0c8.31-1.16,15.85,2.32,23,6,7.82,4,15.31,8.67,23,12.94,7.23,4,14.54,8,23,9.09,12.43,1.68,21.54-7.82,19-19.64-1.19-5.55-4.65-7.9-10.41-7.08,4.54-6.43,14.18-6.37,19.22.24,5.54,7.27,6.61,15.61,5.11,24.15-2.84,16.19-13.34,26.17-29.26,31.1-11.23,3.48-22.64,2.71-33.93.07-13.56-3.16-26.4-8-37.51-16.29C2032.39,346.74,2029.74,344,2027.22,341.82Z" transform="translate(-1796.14 -45.03)"/><path class="cls-2" d="M2176.76,184.66c0-2.6-1-4.08-4.08-4.32-15.65-1.21-31.27-2.91-46.93-3.87-22.9-1.4-45.55.38-67.69,6.54-6.15,1.71-12.21,3.94-18.49,5-13.19,2.14-26.12.84-39-3.16a180.85,180.85,0,0,0-30.08-6.79,233,233,0,0,0-34.63-1.9c-14.16.28-28.29,1.77-42.42,2.87-5.3.41-10.57,1.22-15.84,1.85-0.28,5.95-.6,11.27-0.7,16.59a3.07,3.07,0,0,0,1.59,2.28c6.32,2.81,8.52,8.07,9.34,14.12,1.69,12.43,3.6,24.88,8.53,36.54,5,11.94,13.5,20.53,27.69,22.7a163.8,163.8,0,0,0,39.81,1.6c18-1.66,31.15-11,40.64-25.51,5.21-7.95,8.52-16.64,11.55-25.5a27.08,27.08,0,0,1,4.33-8.32,8.29,8.29,0,0,1,13,0,31.63,31.63,0,0,1,4.78,9.47c3.79,11.45,8.56,22.39,16.71,31.69,10.49,12,24,18.24,40.29,18.51,12.89,0.21,25.83.19,38.42-2.85a33,33,0,0,0,11-5.17c10.5-7.43,14.66-18.44,17.17-30.1,1.8-8.36,3-16.85,4.64-25.24a16.3,16.3,0,0,1,8.48-11.74,3.9,3.9,0,0,0,1.86-2.7C2176.93,193,2176.78,188.85,2176.76,184.66Zm-292.52,8.54c-0.08.73-1,1.37-1.51,2.06a6.45,6.45,0,0,1-1.65-1.92,11.33,11.33,0,0,1-.07-3.12h0a9.1,9.1,0,0,1,.06-2.81,8.82,8.82,0,0,1,1.66-2.22c0.53,0.68,1.43,1.33,1.51,2.06A27.92,27.92,0,0,1,1884.23,193.2Zm288.46,0.14a6.45,6.45,0,0,1-1.65,1.92c-0.53-.68-1.43-1.33-1.51-2.06a27.92,27.92,0,0,1,0-6c0.08-.73,1-1.37,1.51-2.06a8.82,8.82,0,0,1,1.66,2.22,9.1,9.1,0,0,1,.06,2.81h0A11.33,11.33,0,0,1,2172.69,193.34Z" transform="translate(-1796.14 -45.03)"/></svg>