<svg id="Layer_1" data-name="Layer 1" xmlns="http://www.w3.org/2000/svg" viewBox="0 0 445.62 445.62"><defs><style>.cls-1{fill:#e2e2e2;}.cls-2{fill:#0082ff;}</style></defs><title>gry-blu</title><rect class="cls-1" width="445.62" height="445.62"/><path class="cls-2" d="M1540.84,1313.28c-4.78,3.68-9.16,7.92-14.34,10.87-16.29,9.3-33.8,15.35-53.08,14.07-17.81-1.18-31.54-9-38.26-25.51a32.28,32.28,0,0,1,1.21-27.88c3.34-6.48,9.29-9.3,15.16-7.06a25.15,25.15,0,0,1,5.91,3.71c-6.41-.52-10,2.22-10.67,8.42a17.78,17.78,0,0,0,3.81,13.17c3.42,4.38,8.18,5.71,13.65,5.13,8.74-.94,16.23-4.92,23.68-9,9.23-5,18.32-10.32,27.73-15,5.5-2.76,11.65-4.9,17.94-3.73a42.51,42.51,0,0,0,14.15,0c8.16-1.14,15.58,2.28,22.57,5.89,7.69,4,15,8.52,22.61,12.72,7.1,3.94,14.29,7.81,22.58,8.93,12.21,1.65,21.17-7.69,18.68-19.3-1.17-5.45-4.57-7.76-10.23-7,4.46-6.32,13.94-6.26,18.89.23,5.44,7.14,6.49,15.34,5,23.73-2.79,15.9-13.1,25.71-28.76,30.56-11,3.42-22.24,2.66-33.34.07-13.33-3.11-25.94-7.85-36.86-16C1545.91,1318.11,1543.31,1315.47,1540.84,1313.28Z" transform="translate(-1313.78 -1021.64)"/><path class="cls-2" d="M1687.77,1158.85c0-2.56-1-4-4-4.25-15.38-1.19-30.72-2.86-46.12-3.8-22.5-1.38-44.75.37-66.51,6.42-6,1.68-12,3.87-18.17,4.87a82.56,82.56,0,0,1-38.29-3.1,177.7,177.7,0,0,0-29.56-6.68,228.9,228.9,0,0,0-34-1.87c-13.91.27-27.8,1.74-41.69,2.82-5.21.41-10.38,1.2-15.56,1.82-0.27,5.84-.59,11.07-0.69,16.3a3,3,0,0,0,1.56,2.24c6.21,2.76,8.37,7.93,9.18,13.88,1.66,12.22,3.54,24.44,8.38,35.9,5,11.73,13.26,20.18,27.21,22.3a161,161,0,0,0,39.12,1.57c17.68-1.63,30.61-10.85,39.93-25.06,5.12-7.81,8.37-16.35,11.35-25.06a26.61,26.61,0,0,1,4.25-8.17,8.15,8.15,0,0,1,12.8,0,31.08,31.08,0,0,1,4.69,9.31c3.73,11.25,8.41,22,16.42,31.14,10.31,11.77,23.54,17.92,39.59,18.19,12.67,0.21,25.38.18,37.75-2.8a32.46,32.46,0,0,0,10.8-5.08c10.32-7.3,14.41-18.12,16.87-29.58,1.76-8.22,2.94-16.55,4.56-24.8a16,16,0,0,1,8.33-11.53,3.83,3.83,0,0,0,1.83-2.65C1687.94,1167.09,1687.8,1163,1687.77,1158.85Zm-287.43,8.39c-0.08.72-1,1.35-1.49,2a6.34,6.34,0,0,1-1.62-1.89,11.13,11.13,0,0,1-.07-3.07h0a8.94,8.94,0,0,1,.06-2.76,8.67,8.67,0,0,1,1.63-2.18c0.52,0.67,1.41,1.31,1.49,2A27.44,27.44,0,0,1,1400.33,1167.24Zm283.44,0.13a6.34,6.34,0,0,1-1.62,1.89c-0.52-.67-1.41-1.31-1.49-2a27.44,27.44,0,0,1,0-5.85c0.08-.72,1-1.35,1.49-2a8.67,8.67,0,0,1,1.63,2.18,8.94,8.94,0,0,1,.06,2.76h0A11.13,11.13,0,0,1,1683.77,1167.37Z" transform="translate(-1313.78 -1021.64)"/></svg>