<svg id="Layer_1" data-name="Layer 1" xmlns="http://www.w3.org/2000/svg" viewBox="0 0 443.41 443.41"><defs><style>.cls-1{fill:#121212;}.cls-2{fill:#fdfdfd;}</style></defs><title>blk-wht</title><rect class="cls-1" width="443.41" height="443.41"/><path class="cls-2" d="M1015.61,1314c-4.75,3.66-9.12,7.88-14.27,10.82-16.21,9.25-33.63,15.28-52.81,14-17.72-1.18-31.38-8.92-38.07-25.38a32.12,32.12,0,0,1,1.2-27.75c3.32-6.45,9.24-9.25,15.08-7a25,25,0,0,1,5.88,3.69c-6.38-.52-10,2.21-10.61,8.37a17.69,17.69,0,0,0,3.79,13.1c3.4,4.36,8.14,5.69,13.59,5.1,8.69-.94,16.15-4.9,23.56-8.93,9.19-5,18.23-10.27,27.59-15,5.48-2.75,11.59-4.88,17.85-3.71a42.3,42.3,0,0,0,14.08,0c8.12-1.13,15.5,2.27,22.46,5.86,7.65,3.95,15,8.48,22.49,12.65,7.07,3.92,14.22,7.78,22.47,8.89,12.15,1.64,21.06-7.65,18.59-19.21-1.16-5.42-4.54-7.72-10.18-6.92,4.44-6.29,13.87-6.23,18.79.23,5.41,7.1,6.46,15.27,5,23.61-2.77,15.83-13,25.58-28.61,30.41-11,3.4-22.13,2.65-33.18.07-13.26-3.09-25.81-7.81-36.68-15.93C1020.66,1318.85,1018.07,1316.22,1015.61,1314Z" transform="translate(-789.68 -1023.86)"/><path class="cls-2" d="M1161.81,1160.38c0-2.54-.95-4-4-4.23-15.3-1.18-30.57-2.84-45.89-3.78-22.39-1.37-44.53.37-66.18,6.39-6,1.67-11.94,3.85-18.07,4.85a82.15,82.15,0,0,1-38.1-3.09,176.82,176.82,0,0,0-29.41-6.64,227.76,227.76,0,0,0-33.86-1.86c-13.84.27-27.66,1.73-41.48,2.81-5.18.41-10.33,1.19-15.49,1.81-0.27,5.81-.58,11-0.68,16.22a3,3,0,0,0,1.55,2.23c6.18,2.74,8.33,7.89,9.13,13.81,1.65,12.16,3.52,24.32,8.34,35.72,4.93,11.68,13.2,20.08,27.08,22.19a160.15,160.15,0,0,0,38.92,1.56c17.59-1.63,30.46-10.79,39.74-24.94,5.1-7.77,8.33-16.27,11.29-24.93a26.47,26.47,0,0,1,4.23-8.13,8.11,8.11,0,0,1,12.74,0,30.92,30.92,0,0,1,4.67,9.26c3.71,11.19,8.37,21.89,16.34,31,10.26,11.72,23.42,17.83,39.39,18.1,12.6,0.21,25.25.18,37.56-2.79a32.3,32.3,0,0,0,10.75-5.05c10.26-7.26,14.34-18,16.78-29.43,1.76-8.18,2.92-16.47,4.53-24.68a15.93,15.93,0,0,1,8.29-11.48,3.81,3.81,0,0,0,1.82-2.64C1162,1168.58,1161.84,1164.48,1161.81,1160.38Zm-286,8.35c-0.08.71-1,1.34-1.48,2a6.31,6.31,0,0,1-1.61-1.88,11.07,11.07,0,0,1-.07-3.05h0a8.89,8.89,0,0,1,.06-2.75,8.62,8.62,0,0,1,1.63-2.17c0.52,0.67,1.4,1.3,1.48,2A27.3,27.3,0,0,1,875.81,1168.73Zm282,0.13a6.31,6.31,0,0,1-1.61,1.88c-0.52-.67-1.4-1.3-1.48-2a27.3,27.3,0,0,1,0-5.82c0.08-.71,1-1.34,1.48-2a8.62,8.62,0,0,1,1.63,2.17,8.89,8.89,0,0,1,.06,2.75h0A11.07,11.07,0,0,1,1157.84,1168.86Z" transform="translate(-789.68 -1023.86)"/></svg>