<svg id="Layer_1" data-name="Layer 1" xmlns="http://www.w3.org/2000/svg" viewBox="0 0 445.05 445.05"><defs><style>.cls-1{fill:#0082ff;}</style></defs><title>blu-blk</title><rect class="cls-1" width="445.05" height="445.05"/><path d="M1538.18,838c-4.77,3.67-9.15,7.91-14.32,10.86-16.27,9.28-33.75,15.33-53,14.05-17.79-1.18-31.5-9-38.21-25.47a32.24,32.24,0,0,1,1.2-27.85c3.33-6.47,9.28-9.29,15.14-7a25.12,25.12,0,0,1,5.9,3.7c-6.4-.52-10,2.22-10.65,8.41a17.76,17.76,0,0,0,3.8,13.15c3.41,4.38,8.17,5.71,13.64,5.12,8.73-.94,16.21-4.92,23.65-9,9.22-5,18.3-10.31,27.69-15,5.5-2.76,11.63-4.9,17.91-3.73a42.46,42.46,0,0,0,14.13,0c8.15-1.14,15.56,2.28,22.54,5.88,7.68,4,15,8.51,22.58,12.7,7.09,3.94,14.27,7.8,22.55,8.92,12.2,1.65,21.14-7.68,18.66-19.28-1.17-5.44-4.56-7.75-10.22-6.94,4.45-6.31,13.92-6.25,18.86.23,5.43,7.13,6.48,15.32,5,23.7-2.78,15.88-13.09,25.68-28.72,30.52-11,3.41-22.21,2.66-33.3.07-13.31-3.1-25.9-7.84-36.81-16C1543.25,842.79,1540.65,840.15,1538.18,838Z" transform="translate(-1311.42 -546.71)"/><path d="M1684.92,683.74c0-2.55-1-4-4-4.24-15.36-1.19-30.68-2.85-46.06-3.79-22.47-1.38-44.69.37-66.43,6.42-6,1.68-12,3.86-18.14,4.86a82.45,82.45,0,0,1-38.24-3.1,177.47,177.47,0,0,0-29.52-6.67,228.6,228.6,0,0,0-34-1.86c-13.89.27-27.76,1.73-41.63,2.82-5.2.41-10.37,1.2-15.54,1.81-0.27,5.84-.59,11.05-0.68,16.28a3,3,0,0,0,1.56,2.23c6.21,2.75,8.36,7.92,9.16,13.86,1.66,12.2,3.53,24.41,8.37,35.85,5,11.72,13.24,20.15,27.18,22.27A160.74,160.74,0,0,0,1476,772c17.65-1.63,30.57-10.83,39.88-25,5.12-7.8,8.36-16.33,11.33-25a26.57,26.57,0,0,1,4.25-8.16,8.14,8.14,0,0,1,12.78,0,31,31,0,0,1,4.69,9.29c3.72,11.23,8.4,22,16.4,31.1,10.3,11.76,23.51,17.9,39.54,18.16,12.65,0.21,25.34.18,37.7-2.8a32.42,32.42,0,0,0,10.79-5.07c10.3-7.29,14.39-18.09,16.85-29.54,1.76-8.21,2.93-16.53,4.55-24.77a16,16,0,0,1,8.32-11.52,3.83,3.83,0,0,0,1.83-2.65C1685.09,692,1685,687.85,1684.92,683.74Zm-287.06,8.38c-0.08.71-1,1.35-1.48,2a6.33,6.33,0,0,1-1.62-1.89,11.11,11.11,0,0,1-.07-3.06h0a8.93,8.93,0,0,1,.06-2.76,8.66,8.66,0,0,1,1.63-2.18c0.52,0.67,1.41,1.31,1.49,2A27.4,27.4,0,0,1,1397.86,692.12Zm283.07,0.13a6.33,6.33,0,0,1-1.62,1.89c-0.52-.67-1.41-1.31-1.48-2a27.4,27.4,0,0,1,0-5.84c0.08-.71,1-1.35,1.49-2a8.66,8.66,0,0,1,1.63,2.18,8.93,8.93,0,0,1,.06,2.76h0A11.11,11.11,0,0,1,1680.93,692.25Z" transform="translate(-1311.42 -546.71)"/></svg>