<svg id="Layer_1" data-name="Layer 1" xmlns="http://www.w3.org/2000/svg" viewBox="0 0 448.84 448.84"><defs><style>.cls-1{fill:#00f0ff;}.cls-2{fill:#fdfdfd;}</style></defs><title>LtBlu-Wht</title><rect class="cls-1" width="448.84" height="448.84"/><path class="cls-2" d="M1536.41,338.77c-4.81,3.7-9.23,8-14.45,11-16.41,9.36-34,15.46-53.46,14.17-17.94-1.19-31.77-9-38.54-25.69a32.52,32.52,0,0,1,1.21-28.09c3.36-6.53,9.36-9.37,15.27-7.11a25.34,25.34,0,0,1,6,3.73c-6.46-.53-10.09,2.24-10.74,8.48a17.91,17.91,0,0,0,3.84,13.26c3.44,4.42,8.24,5.76,13.75,5.16,8.8-.95,16.35-5,23.85-9,9.3-5.06,18.45-10.4,27.93-15.15,5.54-2.78,11.73-4.94,18.06-3.76a42.82,42.82,0,0,0,14.25,0c8.22-1.15,15.69,2.3,22.73,5.93,7.74,4,15.15,8.58,22.77,12.81,7.15,4,14.39,7.87,22.74,9,12.3,1.66,21.32-7.74,18.81-19.44-1.18-5.49-4.6-7.82-10.31-7,4.49-6.36,14-6.31,19,.24,5.48,7.19,6.54,15.45,5.06,23.9-2.81,16-13.2,25.9-29,30.78-11.12,3.44-22.4,2.68-33.58.07-13.43-3.13-26.12-7.9-37.13-16.12C1541.52,343.64,1538.9,341,1536.41,338.77Z" transform="translate(-1307.71 -45.03)"/><path class="cls-2" d="M1684.4,183.22c0-2.57-1-4-4-4.28-15.49-1.2-30.94-2.88-46.45-3.83-22.67-1.39-45.08.37-67,6.47-6.09,1.69-12.09,3.9-18.3,4.91a83.16,83.16,0,0,1-38.57-3.13,179,179,0,0,0-29.77-6.72,230.55,230.55,0,0,0-34.27-1.88c-14,.28-28,1.75-42,2.84-5.25.41-10.46,1.21-15.68,1.83-0.28,5.89-.59,11.15-0.69,16.42a3,3,0,0,0,1.57,2.25c6.26,2.78,8.43,8,9.24,14,1.67,12.3,3.56,24.62,8.44,36.16,5,11.82,13.36,20.32,27.41,22.46a162.12,162.12,0,0,0,39.4,1.58c17.8-1.65,30.83-10.93,40.22-25.24,5.16-7.86,8.44-16.47,11.43-25.24a26.8,26.8,0,0,1,4.28-8.23,8.21,8.21,0,0,1,12.89,0,31.3,31.3,0,0,1,4.73,9.37c3.75,11.33,8.48,22.16,16.54,31.36,10.39,11.86,23.71,18.05,39.87,18.32,12.76,0.21,25.56.19,38-2.82a32.69,32.69,0,0,0,10.88-5.12c10.39-7.35,14.51-18.25,17-29.79,1.78-8.28,3-16.67,4.59-25a16.13,16.13,0,0,1,8.39-11.62,3.86,3.86,0,0,0,1.84-2.67C1684.57,191.52,1684.43,187.37,1684.4,183.22Zm-289.51,8.45c-0.08.72-1,1.36-1.5,2a6.39,6.39,0,0,1-1.63-1.9,11.21,11.21,0,0,1-.07-3.09h0a9,9,0,0,1,.06-2.78,8.73,8.73,0,0,1,1.65-2.2c0.52,0.68,1.42,1.32,1.5,2A27.64,27.64,0,0,1,1394.89,191.68Zm285.49,0.13a6.39,6.39,0,0,1-1.63,1.9c-0.52-.68-1.42-1.32-1.5-2a27.64,27.64,0,0,1,0-5.89c0.08-.72,1-1.36,1.5-2a8.73,8.73,0,0,1,1.65,2.2,9,9,0,0,1,.06,2.78h0A11.21,11.21,0,0,1,1680.38,191.81Z" transform="translate(-1307.71 -45.03)"/></svg>