<svg id="Layer_1" data-name="Layer 1" xmlns="http://www.w3.org/2000/svg" viewBox="0 0 455.82 455.82"><defs><style>.cls-1{fill:#e2e2e2;}.cls-2{fill:#121212;}</style></defs><title>GryBlk</title><rect class="cls-1" width="455.82" height="455.82"/><path class="cls-2" d="M1010.16,341c-4.89,3.76-9.37,8.1-14.67,11.12-16.66,9.51-34.57,15.7-54.29,14.39-18.22-1.21-32.26-9.17-39.13-26.09a33,33,0,0,1,1.23-28.52c3.41-6.63,9.5-9.51,15.51-7.22a25.73,25.73,0,0,1,6,3.79c-6.56-.53-10.24,2.27-10.91,8.61a18.19,18.19,0,0,0,3.9,13.47c3.5,4.48,8.37,5.85,14,5.24,8.94-1,16.6-5,24.22-9.19,9.45-5.14,18.74-10.56,28.36-15.38,5.63-2.82,11.92-5,18.35-3.82a43.48,43.48,0,0,0,14.48,0c8.35-1.17,15.94,2.33,23.09,6,7.86,4.06,15.39,8.71,23.12,13,7.26,4,14.62,8,23.1,9.14,12.49,1.69,21.65-7.86,19.11-19.74-1.19-5.57-4.67-7.94-10.47-7.11,4.56-6.46,14.26-6.41,19.32.24,5.56,7.3,6.64,15.69,5.14,24.27-2.85,16.27-13.4,26.3-29.41,31.26-11.29,3.5-22.75,2.72-34.11.08-13.63-3.18-26.53-8-37.71-16.37C1015.35,346,1012.69,343.26,1010.16,341Z" transform="translate(-777.9 -42.72)"/><path class="cls-2" d="M1160.45,183.06c0-2.61-1-4.1-4.1-4.34-15.73-1.22-31.43-2.92-47.17-3.89-23-1.41-45.78.38-68,6.57-6.18,1.72-12.27,4-18.58,5-13.26,2.16-26.25.84-39.17-3.17a181.77,181.77,0,0,0-30.24-6.83,234.13,234.13,0,0,0-34.8-1.91c-14.23.28-28.44,1.78-42.64,2.89-5.33.42-10.62,1.23-15.92,1.86-0.28,6-.6,11.32-0.7,16.67a3.09,3.09,0,0,0,1.59,2.29c6.36,2.82,8.56,8.11,9.39,14.19,1.7,12.5,3.62,25,8.57,36.72,5.07,12,13.56,20.64,27.83,22.81a164.64,164.64,0,0,0,40,1.6c18.08-1.67,31.31-11.1,40.85-25.64,5.24-8,8.57-16.73,11.61-25.63a27.21,27.21,0,0,1,4.35-8.36,8.34,8.34,0,0,1,13.09,0,31.79,31.79,0,0,1,4.8,9.52c3.81,11.51,8.61,22.5,16.8,31.85,10.55,12,24.08,18.33,40.49,18.6,13,0.21,26,.19,38.61-2.86a33.2,33.2,0,0,0,11-5.2c10.55-7.47,14.74-18.53,17.25-30.26,1.8-8.41,3-16.93,4.66-25.37a16.38,16.38,0,0,1,8.52-11.8,3.92,3.92,0,0,0,1.87-2.71C1160.62,191.49,1160.48,187.28,1160.45,183.06Zm-294,8.58c-0.08.73-1,1.38-1.52,2.07a6.49,6.49,0,0,1-1.66-1.93,11.38,11.38,0,0,1-.07-3.14h0a9.14,9.14,0,0,1,.06-2.82,8.87,8.87,0,0,1,1.67-2.23c0.53,0.69,1.44,1.34,1.52,2.07A28.07,28.07,0,0,1,866.44,191.65Zm289.92,0.14a6.49,6.49,0,0,1-1.66,1.93c-0.53-.69-1.44-1.34-1.52-2.07a28.07,28.07,0,0,1,0-6c0.08-.73,1-1.38,1.52-2.07a8.87,8.87,0,0,1,1.67,2.23,9.14,9.14,0,0,1,.06,2.82h0A11.38,11.38,0,0,1,1156.36,191.78Z" transform="translate(-777.9 -42.72)"/></svg>